HIERARCHY
ROOT root
{
	OFFSET	0	13.1	24.9
	CHANNELS 6  Xposition Yposition Zposition Xrotation Yrotation Zrotation
	JOINT spine_1
	{
		OFFSET	0	9.99999	0
		CHANNELS 3  Xrotation Yrotation Zrotation
		JOINT spine_2
		{
			OFFSET	0	112	-10
			CHANNELS 3  Xrotation Yrotation Zrotation
			JOINT spine_3
			{
				OFFSET	0	206.5	19.3
				CHANNELS 3  Xrotation Yrotation Zrotation
				JOINT spine_4
				{
					OFFSET	0	110.4	14.6
					CHANNELS 3  Xrotation Yrotation Zrotation
					JOINT neck_1
					{
						OFFSET	0	71.8	-50.3
						CHANNELS 3  Xrotation Yrotation Zrotation
						JOINT neck_2
						{
							OFFSET	0	86.2	-25.8
							CHANNELS 3  Xrotation Yrotation Zrotation
							JOINT head_ee
							{
								OFFSET	0	179.8	-8.7
								CHANNELS 3  Xrotation Yrotation Zrotation
								End Site
								{
									OFFSET	1	0	0
								}
							}
						}
					}
					JOINT left_clavicle
					{
						OFFSET	-43.2	22.4	-70.8
						CHANNELS 3  Xrotation Yrotation Zrotation
						JOINT left_shoulder
						{
							OFFSET	-93.9	-5.79999	48.7
							CHANNELS 3  Xrotation Yrotation Zrotation
							JOINT left_elbow
							{
								OFFSET	-291.4	-30.8	15.2
								CHANNELS 3  Xrotation Yrotation Zrotation
								JOINT left_lowarm_twist
								{
									OFFSET	-110.7	-3.89999	13.6
									CHANNELS 3  Xrotation Yrotation Zrotation
									JOINT left_hand
									{
										OFFSET	-110.7	-3.89999	13.6
										CHANNELS 3  Xrotation Yrotation Zrotation
										JOINT left_ee
										{
											OFFSET	-80.8	-5.10001	12.1
											CHANNELS 3  Xrotation Yrotation Zrotation
											End Site
											{
												OFFSET	1	0	0
											}
										}
									}
								}
							}
						}
					}
					JOINT right_clavicle
					{
						OFFSET	43.2	22.4	-70.8
						CHANNELS 3  Xrotation Yrotation Zrotation
						JOINT right_shoulder
						{
							OFFSET	93.9	-5.79999	48.7
							CHANNELS 3  Xrotation Yrotation Zrotation
							JOINT right_elbow
							{
								OFFSET	291.4	-30.8	15.2
								CHANNELS 3  Xrotation Yrotation Zrotation
								JOINT right_lowarm_twist
								{
									OFFSET	110.7	-3.89999	13.6
									CHANNELS 3  Xrotation Yrotation Zrotation
									JOINT right_hand
									{
										OFFSET	110.7	-3.89999	13.6
										CHANNELS 3  Xrotation Yrotation Zrotation
										JOINT right_ee
										{
											OFFSET	80.8	-5.10001	12.1
											CHANNELS 3  Xrotation Yrotation Zrotation
											End Site
											{
												OFFSET	1	0	0
											}
										}
									}
								}
							}
						}
					}
				}
			}
		}
	}
	JOINT left_hip
	{
		OFFSET	-82.8	-127.5	0.300001
		CHANNELS 3  Xrotation Yrotation Zrotation
		JOINT left_knee
		{
			OFFSET	-28.2	-396.7	2.2
			CHANNELS 3  Xrotation Yrotation Zrotation
			JOINT left_ankle
			{
				OFFSET	-11.7	-411.3	35.4
				CHANNELS 3  Xrotation Yrotation Zrotation
				JOINT left_toes
				{
					OFFSET	0	-60	-88.6
					CHANNELS 3  Xrotation Yrotation Zrotation
					JOINT left_foot_ee
					{
						OFFSET	-22.5	-16.5	-42.2
						CHANNELS 3  Xrotation Yrotation Zrotation
						End Site
						{
							OFFSET	1	0	0
						}
					}
				}
			}
		}
	}
	JOINT right_hip
	{
		OFFSET	82.8	-127.5	0.300001
		CHANNELS 3  Xrotation Yrotation Zrotation
		JOINT right_knee
		{
			OFFSET	28.2	-396.7	2.2
			CHANNELS 3  Xrotation Yrotation Zrotation
			JOINT right_ankle
			{
				OFFSET	11.7	-411.3	35.4
				CHANNELS 3  Xrotation Yrotation Zrotation
				JOINT right_toes
				{
					OFFSET	0	-60	-88.6
					CHANNELS 3  Xrotation Yrotation Zrotation
					JOINT right_foot_ee
					{
						OFFSET	22.5	-16.5	-42.2
						CHANNELS 3  Xrotation Yrotation Zrotation
						End Site
						{
							OFFSET	1	0	0
						}
					}
				}
			}
		}
	}
}
MOTION
Frames: 10
Frame Time: 0.02
1008.80021047 741.145 -1522.85654619 14.3955012775 70.3270581955 -24.4966943244 -0.892208 1.12387 5.70984 -0.874402 0.758885 5.76951 -0.78343 -0.550492 5.79303 -0.830037 0.369729 5.80732 -25.206 1.65747 -2.41624 -25.2267 4.20338 -1.40297 -0.0 0.0 -0.0 -5.44938 23.1281 -4.88025 -12.7753 -28.711 68.7429 0.512393 -14.2425 0.0640154 -19.2097 -1.05723 2.20561 0.0528501 8.83712 4.01128 -0.0 0.0 -0.0 11.2843 13.2388 -22.6256 8.79522 37.3681 -66.1935 0.92899 24.7113 -0.203502 22.8567 -0.231393 2.89127 3.52821 12.6807 -18.6733 0.0 0.0 0.0 7.94358 15.8931 8.90141 -50.058 -1.22722 7.34385 24.7634 12.9906 -3.32331 -40.1603 0.0 0.0 -0.0 0.0 -0.0 6.742 11.1128 7.74351 -21.5026 -0.274756 -3.26898 25.3909 1.53238 3.41014 -6.96892 0.0 0.0 0.0 0.0 0.0 
1010.025145 741.145 -1531.41301105 13.5154714757 69.0150805389 -23.5582737674 -0.892208 1.12387 5.70984 -0.874402 0.758885 5.76951 -0.78343 -0.550492 5.79303 -0.830037 0.369729 5.80732 -25.206 1.65747 -2.41624 -25.2267 4.20338 -1.40297 -0.0 0.0 -0.0 -5.44938 23.1281 -4.88025 -12.7753 -28.711 68.7429 0.512393 -14.2425 0.0640154 -19.2097 -1.05723 2.20561 0.0528501 8.83712 4.01128 -0.0 0.0 -0.0 11.2843 13.2388 -22.6256 8.79522 37.3681 -66.1935 0.92899 24.7113 -0.203502 22.8567 -0.231393 2.89127 3.52821 12.6807 -18.6733 0.0 0.0 0.0 7.94358 15.8931 8.90141 -50.058 -1.22722 7.34385 24.7634 12.9906 -3.32331 -40.1603 0.0 0.0 -0.0 0.0 -0.0 6.742 11.1128 7.74351 -21.5026 -0.274756 -3.26898 25.3909 1.53238 3.41014 -6.96892 0.0 0.0 0.0 0.0 0.0 
994.247117177 747.756 -1528.4346919 14.4298678718 69.0814128485 -24.5979102707 -0.838987 1.2524 5.73453 -0.821139 0.885594 5.80229 -0.716684 -0.426851 5.85376 -0.764116 0.501376 5.84787 -28.3292 1.65908 -2.9857 -28.3491 4.26946 -1.86524 -0.0 0.0 -0.0 -4.91395 23.1229 -4.12923 -14.315 -28.35 68.2436 0.422958 -11.8337 0.0438344 -17.7293 -0.949942 2.04932 0.384698 9.48244 6.41481 -0.0 0.0 -0.0 11.3798 13.6929 -22.8291 9.05349 36.9201 -65.1315 0.985103 26.0115 -0.227538 23.458 -0.221828 2.96747 3.52614 14.4667 -17.7881 0.0 0.0 0.0 10.6368 16.171 7.59937 -47.4286 -1.00567 7.00508 30.3357 13.6782 -3.95821 -40.0319 0.0 0.0 -0.0 0.0 -0.0 3.72655 11.9903 8.65714 -19.236 -0.303947 -2.92243 24.1101 5.28699 3.29902 -8.23232 0.0 0.0 0.0 0.0 0.0 
973.95277348 747.106 -1518.93356811 16.8205955187 71.1105621227 -26.7883895752 -0.69112 1.23309 5.71284 -0.673392 0.867688 5.77942 -0.572008 -0.424533 5.82859 -0.619034 0.49971 5.82264 -28.7166 1.40306 -3.76165 -28.7178 4.03264 -2.73305 -0.0 0.0 -0.0 -4.8448 23.3882 -3.96476 -17.6359 -27.9956 67.4873 0.51952 -14.4324 0.06578 -17.551 -0.937299 2.03032 0.67829 10.8014 8.82388 -0.0 0.0 -0.0 11.7366 15.8002 -23.5663 9.44241 36.1565 -63.6222 1.03035 27.0395 -0.247748 23.8749 -0.214726 3.02026 3.58662 15.6231 -17.6384 0.0 0.0 0.0 13.1096 17.9309 5.42439 -46.5974 -0.938907 6.89594 29.8918 12.8031 -3.90261 -40.1174 0.0 0.0 -0.0 0.0 -0.0 3.62452 4.67426 9.82076 -18.4627 -0.310766 -2.80398 25.9698 9.53147 3.58191 -10.4816 0.0 0.0 0.0 0.0 0.0 
965.315820556 749.32 -1519.2708099 14.5783326516 71.2376492143 -24.6337917768 -0.619632 1.23115 5.73884 -0.601736 0.864106 5.80524 -0.500592 -0.426422 5.85352 -0.548021 0.501762 5.84757 -29.0531 1.33146 -3.80491 -29.051 3.88707 -2.81166 -0.0 0.0 -0.0 -4.44422 23.2303 -3.44577 -18.9454 -28.1197 67.5391 0.488908 -13.6146 0.0583622 -16.9111 -0.892398 1.96178 1.08653 11.9318 11.8875 -0.0 0.0 -0.0 12.3693 17.116 -24.9571 11.4274 34.9158 -61.72 1.00033 26.3595 -0.234259 24.5302 -0.202787 3.10311 3.48493 17.1967 -16.1414 0.0 0.0 0.0 15.6041 17.072 5.0324 -40.3608 -0.489879 6.04871 29.8194 13.8485 -3.90364 -40.1494 0.0 0.0 -0.0 0.0 -0.0 3.04214 8.38191 10.0345 -17.2151 -0.318396 -2.61271 26.3998 14.5307 3.73939 -14.3029 0.0 0.0 0.0 0.0 0.0 
953.970241379 750.367 -1516.53268101 12.2736008212 70.6333065036 -22.7188675383 -0.564031 1.27654 5.74734 -0.546125 0.908874 5.81659 -0.440395 -0.378801 5.87477 -0.488097 0.55213 5.86107 -28.9333 1.26101 -4.10418 -28.924 3.86585 -3.13437 -0.0 0.0 -0.0 -4.37232 23.1014 -3.37648 -20.0898 -28.2415 67.871 0.516903 -14.3627 0.0651293 -16.4324 -0.859314 1.9102 1.42006 12.744 14.348 -0.0 0.0 -0.0 12.8363 18.9907 -25.9327 12.7238 33.912 -60.4298 1.03305 27.1001 -0.248973 24.8142 -0.197318 3.13898 3.44292 18.3812 -15.253 0.0 0.0 0.0 18.1261 17.0986 4.10163 -35.6986 -0.216031 5.38677 27.8601 14.7635 -3.69445 -40.2263 0.0 0.0 -0.0 0.0 -0.0 2.08988 7.2339 10.5147 -14.6295 -0.320943 -2.21604 29.1436 18.1911 4.16636 -16.7829 0.0 0.0 0.0 0.0 0.0 
937.654883721 745.726 -1509.69337311 12.7641129014 71.5280522032 -22.7106785386 -0.524848 1.29774 5.708 -0.507215 0.932516 5.77868 -0.400004 -0.343192 5.84315 -0.447143 0.582329 5.82424 -28.7294 1.97992 -1.87042 -28.7693 4.46484 -0.627854 -0.0 0.0 -0.0 -4.50295 23.484 -3.46571 -21.6878 -28.051 67.837 0.568985 -15.7411 0.0786558 -15.9188 -0.824306 1.85455 1.7478 13.0509 16.6045 -0.0 0.0 -0.0 12.6979 20.5135 -25.5061 13.9482 32.9332 -60.038 1.15459 29.7663 -0.306858 25.4031 -0.185413 3.21326 3.37166 18.9833 -14.4599 0.0 0.0 0.0 21.0707 17.7826 3.14675 -29.8261 0.0506866 4.52558 20.7659 18.6494 -2.88384 -40.1232 0.0 0.0 -0.0 0.0 -0.0 1.12235 4.92229 10.602 -14.116 -0.319318 -2.13728 31.3121 22.4793 4.57664 -18.484 0.0 0.0 0.0 0.0 0.0 
926.853480229 745.775 -1504.0018101 10.7381147537 72.8693349363 -20.3291825092 -0.376579 1.17339 5.64846 -0.359206 0.812191 5.71139 -0.266391 -0.43316 5.75243 -0.312216 0.479224 5.74879 -28.8325 2.43473 -0.627121 -28.8911 4.89236 0.802911 -0.0 0.0 -0.0 -4.32161 23.1354 -3.29754 -22.4527 -28.0075 67.9822 0.566905 -15.6864 0.0780924 -14.8605 -0.753745 1.73891 2.30439 13.5764 20.4906 -0.0 0.0 -0.0 12.8834 21.1346 -25.8884 13.9755 32.0248 -58.9093 1.24865 31.7373 -0.354961 26.1514 -0.169185 3.30747 3.45964 21.21 -13.9127 0.0 0.0 0.0 22.3047 17.761 2.51631 -24.498 0.215195 3.72471 16.6437 19.8254 -2.36143 -39.2229 0.0 0.0 -0.0 0.0 -0.0 1.57608 3.40909 10.1713 -13.5771 -0.316854 -2.05463 31.7262 25.9235 4.78649 -19.8848 0.0 0.0 0.0 0.0 0.0 
907.794077568 740.626 -1497.57162149 11.0578268369 73.3780418882 -20.8422433223 -0.311942 1.1277 5.78888 -0.29363 0.757704 5.84862 -0.204387 -0.509853 5.87533 -0.252274 0.422793 5.88221 -28.7112 2.79662 0.592928 -28.7758 5.15417 2.14912 -0.0 0.0 -0.0 -4.29733 23.3875 -3.20374 -23.5385 -27.925 67.9777 0.566575 -15.6777 0.0780033 -14.3996 -0.723688 1.68815 2.64182 14.0088 22.9229 -0.0 0.0 -0.0 12.9932 21.6997 -26.097 14.0483 31.3937 -58.3846 1.34662 33.7045 -0.407924 26.6166 -0.158475 3.36593 3.57679 22.8248 -13.851 0.0 0.0 0.0 23.3928 17.6357 1.56031 -20.5364 0.288877 3.12138 13.3046 21.4206 -1.92361 -38.655 0.0 0.0 -0.0 0.0 -0.0 0.343724 1.71551 11.5191 -13.4464 -0.316139 -2.03459 33.0392 28.4761 5.07993 -20.7441 0.0 0.0 0.0 0.0 0.0 
907.579821836 740.626 -1492.55811098 11.4705438597 73.9847198284 -21.2722788027 -0.311942 1.1277 5.78888 -0.29363 0.757704 5.84862 -0.204387 -0.509853 5.87533 -0.252274 0.422793 5.88221 -28.7112 2.79662 0.592928 -28.7758 5.15417 2.14912 -0.0 0.0 -0.0 -4.29733 23.3875 -3.20374 -23.5385 -27.925 67.9777 0.566575 -15.6777 0.0780033 -14.3996 -0.723688 1.68815 2.64182 14.0088 22.9229 -0.0 0.0 -0.0 12.9932 21.6997 -26.097 14.0483 31.3937 -58.3846 1.34662 33.7045 -0.407924 26.6166 -0.158475 3.36593 3.57679 22.8248 -13.851 0.0 0.0 0.0 23.3928 17.6357 1.56031 -20.5364 0.288877 3.12138 13.3046 21.4206 -1.92361 -38.655 0.0 0.0 -0.0 0.0 -0.0 0.343724 1.71551 11.5191 -13.4464 -0.316139 -2.03459 33.0392 28.4761 5.07993 -20.7441 0.0 0.0 0.0 0.0 0.0 
